<?xml version="1.0" encoding="utf-8"?>
<!-- Generator: Adobe Illustrator 25.0.0, SVG Export Plug-In . SVG Version: 6.00 Build 0)  -->
<svg version="1.1" id="Ebene_2" xmlns="http://www.w3.org/2000/svg" xmlns:xlink="http://www.w3.org/1999/xlink" x="0px" y="0px"
	 viewBox="0 0 800 400" style="enable-background:new 0 0 800 400;" xml:space="preserve">
<style type="text/css">
	.st0{fill:#FFFFFF;fill-opacity:0;}
	.st1{fill:#A6A6A6;}
	.st2{fill:#FFFFFF;}
	.st3{fill:url(#SVGID_1_);}
	.st4{fill:url(#SVGID_2_);}
	.st5{fill:url(#SVGID_3_);}
	.st6{fill:url(#SVGID_4_);}
	.st7{opacity:0.2;enable-background:new    ;}
	.st8{opacity:0.12;enable-background:new    ;}
	.st9{opacity:0.25;fill:#FFFFFF;enable-background:new    ;}
	.st10{fill:#FFFFFF;stroke:#FFFFFF;stroke-width:0.2;stroke-miterlimit:10;}
</style>
<g id="ICO_x5F_google_x5F_play">
	<g>
		<rect x="-33.1" y="25.9" class="st0" width="865" height="334.8"/>
		<g>
			<path d="M748.1,304.9H50.6c-15.3,0-27.9-12.6-27.9-27.9V109.6c0-15.3,12.6-27.9,27.9-27.9h697.6c15.3,0,27.9,12.6,27.9,27.9V277
				C776,292.4,763.5,304.9,748.1,304.9z"/>
		</g>
		<g>
			<g>
				<path class="st1" d="M748.1,86.2c12.9,0,23.4,10.5,23.4,23.4V277c0,12.9-10.5,23.4-23.4,23.4H50.6c-12.9,0-23.4-10.5-23.4-23.4
					V109.6c0-12.9,10.5-23.4,23.4-23.4H748.1 M748.1,81.7H50.6c-15.3,0-27.9,12.6-27.9,27.9V277c0,15.3,12.6,27.9,27.9,27.9h697.6
					c15.3,0,27.9-12.6,27.9-27.9V109.6C776,94.3,763.5,81.7,748.1,81.7L748.1,81.7z"/>
			</g>
		</g>
		<path class="st2" d="M402.9,203.1c-13.1,0-23.8,10-23.8,23.7s10.7,23.7,23.8,23.7c13.1,0,23.8-10.1,23.8-23.7
			C426.7,213.1,416,203.1,402.9,203.1z M402.9,241.2c-7.2,0-13.4-5.9-13.4-14.4s6.2-14.4,13.4-14.4c7.2,0,13.4,5.8,13.4,14.4
			C416.3,235.3,410.1,241.2,402.9,241.2z M350.9,203.1c-13.1,0-23.8,10-23.8,23.7s10.7,23.7,23.8,23.7c13.1,0,23.8-10.1,23.8-23.7
			C374.8,213.1,364.1,203.1,350.9,203.1z M350.9,241.2c-7.2,0-13.4-5.9-13.4-14.4s6.2-14.4,13.4-14.4c7.2,0,13.4,5.8,13.4,14.4
			C364.3,235.3,358.1,241.2,350.9,241.2z M289.1,210.4v10.1h24.1c-0.7,5.7-2.6,9.8-5.5,12.7c-3.5,3.5-9,7.4-18.6,7.4
			c-14.8,0-26.4-12-26.4-26.8s11.6-26.8,26.4-26.8c8,0,13.8,3.1,18.2,7.2l7.1-7.1c-6-5.8-14-10.2-25.3-10.2
			c-20.3,0-37.4,16.5-37.4,36.9c0,20.3,17.1,36.9,37.4,36.9c11,0,19.2-3.6,25.7-10.3c6.7-6.7,8.7-16,8.7-23.6c0-2.3-0.2-4.5-0.5-6.3
			L289.1,210.4L289.1,210.4L289.1,210.4z M541.9,218.2c-2-5.3-8-15.1-20.3-15.1c-12.2,0-22.4,9.6-22.4,23.7
			c0,13.3,10.1,23.7,23.6,23.7c10.9,0,17.2-6.7,19.8-10.5l-8.1-5.4c-2.7,4-6.4,6.6-11.7,6.6s-9.1-2.4-11.5-7.2l31.7-13.1
			L541.9,218.2z M509.6,226.1c-0.3-9.2,7.1-13.8,12.4-13.8c4.1,0,7.6,2.1,8.8,5L509.6,226.1z M483.8,249.1h10.4v-69.8h-10.4V249.1z
			 M466.7,208.4h-0.4c-2.3-2.8-6.8-5.3-12.5-5.3c-11.9,0-22.7,10.4-22.7,23.8c0,13.3,10.9,23.6,22.7,23.6c5.7,0,10.2-2.5,12.5-5.4
			h0.4v3.4c0,9.1-4.9,13.9-12.7,13.9c-6.4,0-10.3-4.6-12-8.4l-9.1,3.8c2.6,6.3,9.5,14,21,14c12.2,0,22.6-7.2,22.6-24.7v-42.6h-9.9
			v3.9H466.7z M454.7,241.2c-7.2,0-13.2-6-13.2-14.3c0-8.4,6-14.5,13.2-14.5c7.1,0,12.7,6.1,12.7,14.5
			C467.4,235.2,461.8,241.2,454.7,241.2z M590.8,179.4h-24.9v69.8h10.4v-26.4h14.5c11.5,0,22.9-8.4,22.9-21.7
			C613.7,187.7,602.3,179.4,590.8,179.4z M591.1,213h-14.8v-23.9h14.8c7.8,0,12.2,6.4,12.2,12C603.3,206.4,598.9,213,591.1,213z
			 M655.4,203c-7.5,0-15.3,3.3-18.6,10.7l9.2,3.9c2-3.9,5.7-5.1,9.5-5.1c5.4,0,10.9,3.2,10.9,9v0.7c-1.9-1.1-5.9-2.7-10.9-2.7
			c-10,0-20.1,5.5-20.1,15.7c0,9.3,8.2,15.3,17.3,15.3c7,0,10.9-3.1,13.3-6.8h0.4v5.4h10.1v-26.7C676.6,209.9,667.4,203,655.4,203z
			 M654.2,241.2c-3.4,0-8.2-1.7-8.2-5.9c0-5.4,5.9-7.4,11-7.4c4.6,0,6.7,1,9.5,2.3C665.7,236.6,660.2,241.2,654.2,241.2z
			 M713.2,204.5l-11.9,30.2h-0.4l-12.4-30.2h-11.2l18.6,42.3l-10.6,23.5h10.9l28.6-65.8L713.2,204.5L713.2,204.5z M619.4,249.1h10.4
			v-69.8h-10.4V249.1z"/>
		<g>
			
				<linearGradient id="SVGID_1_" gradientUnits="userSpaceOnUse" x1="144.2973" y1="1013.6973" x2="50.6412" y2="920.0413" gradientTransform="matrix(1 0 0 -1 0 1144)">
				<stop  offset="0" style="stop-color:#00A0FF"/>
				<stop  offset="6.574450e-03" style="stop-color:#00A1FF"/>
				<stop  offset="0.2601" style="stop-color:#00BEFF"/>
				<stop  offset="0.5122" style="stop-color:#00D2FF"/>
				<stop  offset="0.7604" style="stop-color:#00DFFF"/>
				<stop  offset="1" style="stop-color:#00E3FF"/>
			</linearGradient>
			<path class="st3" d="M80.9,123.8c-1.6,1.7-2.6,4.4-2.6,7.8V255c0,3.5,1,6.1,2.6,7.8l0.4,0.4l69.1-69.1v-0.8v-0.8l-69.1-69.1
				L80.9,123.8z"/>
			
				<linearGradient id="SVGID_2_" gradientUnits="userSpaceOnUse" x1="211.4767" y1="950.7" x2="76.4463" y2="950.7" gradientTransform="matrix(1 0 0 -1 0 1144)">
				<stop  offset="0" style="stop-color:#FFE000"/>
				<stop  offset="0.4087" style="stop-color:#FFBD00"/>
				<stop  offset="0.7754" style="stop-color:#FFA500"/>
				<stop  offset="1" style="stop-color:#FF9C00"/>
			</linearGradient>
			<path class="st4" d="M173.5,217.2l-23-23.1v-0.8v-0.8l23.1-23.1l0.5,0.3l27.3,15.5c7.8,4.4,7.8,11.7,0,16.1L174,216.9
				L173.5,217.2z"/>
			
				<linearGradient id="SVGID_3_" gradientUnits="userSpaceOnUse" x1="161.1845" y1="937.8845" x2="34.1783" y2="810.8783" gradientTransform="matrix(1 0 0 -1 0 1144)">
				<stop  offset="0" style="stop-color:#FF3A44"/>
				<stop  offset="1" style="stop-color:#C31162"/>
			</linearGradient>
			<path class="st5" d="M174,216.9l-23.6-23.6l-69.6,69.6c2.6,2.7,6.8,3.1,11.6,0.3L174,216.9"/>
			
				<linearGradient id="SVGID_4_" gradientUnits="userSpaceOnUse" x1="63.3674" y1="1061.2827" x2="120.0804" y2="1004.5696" gradientTransform="matrix(1 0 0 -1 0 1144)">
				<stop  offset="0" style="stop-color:#32A071"/>
				<stop  offset="6.850000e-02" style="stop-color:#2DA771"/>
				<stop  offset="0.4762" style="stop-color:#15CF74"/>
				<stop  offset="0.8009" style="stop-color:#06E775"/>
				<stop  offset="1" style="stop-color:#00F076"/>
			</linearGradient>
			<path class="st6" d="M174,169.8l-81.5-46.3c-4.8-2.7-9-2.4-11.6,0.3l69.6,69.6L174,169.8z"/>
			<g>
				<path class="st7" d="M173.5,216.4l-81,46c-4.5,2.6-8.6,2.4-11.2,0.1l0,0l-0.4,0.4l0,0l0.4,0.4l0,0c2.6,2.3,6.7,2.5,11.2-0.1
					l81.5-46.3L173.5,216.4z"/>
				<path class="st8" d="M80.9,262.1c-1.6-1.7-2.6-4.4-2.6-7.8v0.8c0,3.5,1,6.1,2.6,7.8l0.4-0.4L80.9,262.1z"/>
			</g>
			<path class="st8" d="M201.3,200.6l-27.8,15.8l0.5,0.5l27.3-15.5c3.9-2.2,5.9-5.1,5.9-8.1l0,0C206.8,196,204.9,198.6,201.3,200.6z
				"/>
			<path class="st9" d="M92.5,124.3l108.8,61.8c3.5,2,5.5,4.6,5.9,7.2l0,0c0-2.9-1.9-5.8-5.9-8.1L92.5,123.4
				c-7.8-4.4-14.2-0.7-14.2,8.2v0.8C78.3,123.5,84.7,119.8,92.5,124.3z"/>
		</g>
	</g>
	<g>
		<path class="st10" d="M262.7,155c-2.4,0-4.5-0.7-6.2-2c-1.7-1.4-2.9-3.3-3.6-5.7l3.9-1.6c1,3.5,3,5.3,6.1,5.3c2,0,3.5-0.6,4.6-1.9
			s1.6-3,1.6-5.3v-22.9h4.3v22.8c0,3.6-1,6.5-3,8.4C268.4,154,265.8,155,262.7,155z"/>
		<path class="st10" d="M300.1,124.9h-15.2v10.6h13.8v4h-13.8v10.6h15.2v4.1h-19.5v-33.5h19.5V124.9z"/>
		<path class="st10" d="M318.2,154.3h-4.3v-29.4h-9.4v-4.1h23v4.1h-9.3L318.2,154.3L318.2,154.3z"/>
		<path class="st10" d="M331.1,154.3v-4.5l17.8-24.9h-17.1v-4.1h22.1v4.5l-17.8,24.9h18v4.1H331.1z"/>
		<path class="st10" d="M371.7,154.3h-4.3v-29.4H358v-4.1h23v4.1h-9.4v29.4H371.7z"/>
		<path class="st10" d="M397.7,154.3v-33.5h12.1c2.6,0,4.9,0.9,6.8,2.6s2.9,3.9,2.9,6.5c0,1.6-0.4,3-1.2,4.2
			c-0.8,1.2-1.9,2.1-3.3,2.8v0.2c1.7,0.6,3,1.5,4.1,2.9s1.6,3,1.6,4.8c0,2.7-1,5-3,6.8s-4.4,2.7-7.1,2.7L397.7,154.3L397.7,154.3z
			 M402,135.1h7.8c1.6,0,2.9-0.5,3.9-1.6s1.5-2.3,1.5-3.5c0-1.3-0.5-2.4-1.4-3.5s-2.2-1.6-3.8-1.6h-8V135.1z M402,150.1h8.7
			c1.7,0,3-0.6,4-1.7s1.5-2.4,1.5-3.8s-0.5-2.6-1.6-3.8c-1.1-1.1-2.4-1.7-4.2-1.7H402V150.1z"/>
		<path class="st10" d="M446,124.9h-15.2v10.6h13.8v4h-13.8v10.6H446v4.1h-19.5v-33.5H446V124.9z"/>
		<path class="st10" d="M452.7,154.3v-33.5h4.3v33.5H452.7z"/>
	</g>
</g>
</svg>
